<svg width="100" height="100" viewBox="0 0 100 100" fill="none" xmlns="http://www.w3.org/2000/svg">
<path d="M50 100L73 77L66.5 70.5L50 87L33.5 70.5L27 77L50 100Z" fill="#99D7F1"/>
<path d="M50 0L27 23L33.5 29.5L50 13L66.5 29.5L73 23L50 0Z" fill="#99D7F1"/>
<path d="M27 23L0 50L27 77L33.5 70.5L13 50L33.5 29.5L27 23Z" fill="#14B1ED"/>
<path d="M73 23L100 50L73 77L66.5 70.5L87 50L66.5 29.5L73 23Z" fill="#14B1ED"/>
<path d="M13 50L50 87L87 50L50 13L13 50Z" fill="#F2F2F2"/>
<path fill-rule="evenodd" clip-rule="evenodd" d="M34.8492 51.9338C33.9616 50.665 33.1436 49.4957 33.1436 48.2028C33.1436 42.2658 40.588 42.2657 40.588 48.2028C40.588 49.4825 39.7714 50.6412 38.8877 51.895C38.0777 53.0445 37.2112 54.274 36.8658 55.75C36.498 54.2906 35.6456 53.0722 34.8492 51.9338ZM35.1251 48.2028C35.1251 45.4609 38.6407 45.4609 38.6407 48.2028C38.6407 50.9446 35.1251 50.804 35.1251 48.2028Z" fill="#EB5757"/>
<path fill-rule="evenodd" clip-rule="evenodd" d="M61.3649 49.8503C60.4772 48.5815 59.6592 47.4122 59.6592 46.1193C59.6592 40.1823 67.1036 40.1822 67.1036 46.1193C67.1036 47.399 66.287 48.5577 65.4034 49.8115C64.5933 50.961 63.7268 52.1905 63.3814 53.6665C63.0136 52.2071 62.1612 50.9887 61.3649 49.8503ZM61.6407 46.1193C61.6407 43.3774 65.1563 43.3774 65.1563 46.1193C65.1563 48.8611 61.6407 48.7205 61.6407 46.1193Z" fill="#EB5757"/>
<path d="M42.7273 62L30 70V38L42.7273 30M42.7273 62L57.2727 70M42.7273 62V30M57.2727 70L70 62V30L57.2727 38M57.2727 70V38M57.2727 38L42.7273 30" stroke="#828282" stroke-width="2" stroke-linecap="round" stroke-linejoin="round"/>
<path fill-rule="evenodd" clip-rule="evenodd" d="M50.0006 59.8503C49.113 58.5815 48.2949 57.4122 48.2949 56.1193C48.2949 50.1823 55.7394 50.1822 55.7394 56.1193C55.7394 57.399 54.9228 58.5577 54.0391 59.8115C53.229 60.961 52.3626 62.1905 52.0171 63.6665C51.6493 62.2071 50.797 60.9887 50.0006 59.8503ZM50.2765 56.1193C50.2765 53.3774 53.7921 53.3774 53.7921 56.1193C53.7921 58.8611 50.2765 58.7205 50.2765 56.1193Z" fill="#538F23"/>
<path fill-rule="evenodd" clip-rule="evenodd" d="M46.2135 44.0173C45.3259 42.7485 44.5078 41.5791 44.5078 40.2863C44.5078 34.3492 51.9522 34.3492 51.9522 40.2863C51.9522 41.566 51.1357 42.7246 50.252 43.9785C49.4419 45.128 48.5755 46.3575 48.23 47.8335C47.8622 46.3741 47.0099 45.1557 46.2135 44.0173ZM46.4893 40.2863C46.4893 37.5444 50.005 37.5444 50.005 40.2863C50.005 43.0281 46.4893 42.8875 46.4893 40.2863Z" fill="#538F23"/>
</svg>
