<svg width="100" height="100" viewBox="0 0 100 100" fill="none" xmlns="http://www.w3.org/2000/svg">
<path d="M50 100L73 77L66.5 70.5L50 87L33.5 70.5L27 77L50 100Z" fill="#99D7F1"/>
<path d="M50 0L27 23L33.5 29.5L50 13L66.5 29.5L73 23L50 0Z" fill="#99D7F1"/>
<path d="M27 23L0 50L27 77L33.5 70.5L13 50L33.5 29.5L27 23Z" fill="#14B1ED"/>
<path d="M73 23L100 50L73 77L66.5 70.5L87 50L66.5 29.5L73 23Z" fill="#14B1ED"/>
<path d="M13 50L50 87L87 50L50 13L13 50Z" fill="#F2F2F2"/>
<path fill-rule="evenodd" clip-rule="evenodd" d="M50.167 64.6667H57.7459V69.1111L58.588 70H61.1144L61.9565 69.1111V64.6667H66.167V46.8889L65.7225 44.2222L65.3249 41.5556L64.8337 38.8889L64.4828 36.2222L63.6407 34.4444L61.9565 33.1111L61.1144 32.6667L59.9448 32L57.9448 31.3333L56.4828 30.8889L54.3892 30.2222L53.1144 30H45.9565L44.6114 30.2222L42.588 30.8889L41.2781 31.3333L40.0617 31.7778L39.2196 32.2222L38.3775 32.6667L36.6933 34.4444L35.8512 36.2222L35.5003 38.6667L35.0091 41.5556L34.6114 44.2222L34.167 46.8889V64.6667H37.5354V69.1111L38.3775 70H40.9038L41.7459 69.1111V64.6667H50.167ZM37.5354 50.4444H61.9565V46.8889V44.8889L61.1144 41.5556L60.6114 40.4444L60.2723 39.7778L59.4302 38.8889H40.0617L39.2196 39.7778L38.8337 40.4444L38.3775 41.5556L37.5354 44.8889V46.8889V50.4444ZM41.7459 60.2222L40.9038 61.1111H38.3775L37.5354 60.2222V57.5556L38.3775 56.6667H40.9038L41.7459 57.5556V60.2222ZM61.9565 60.2222V57.5556L61.1144 56.6667H58.588L57.7459 57.5556V60.2222L58.588 61.1111H61.1144L61.9565 60.2222ZM58.588 34.4444H40.9038V33.5556H58.588V34.4444Z" fill="#538F23"/>
</svg>
