<svg width="100" height="100" viewBox="0 0 100 100" fill="none" xmlns="http://www.w3.org/2000/svg">
<path d="M50 100L73 77L66.5 70.5L50 87L33.5 70.5L27 77L50 100Z" fill="#99D7F1"/>
<path d="M50 0L27 23L33.5 29.5L50 13L66.5 29.5L73 23L50 0Z" fill="#99D7F1"/>
<path d="M27 23L0 50L27 77L33.5 70.5L13 50L33.5 29.5L27 23Z" fill="#14B1ED"/>
<path d="M73 23L100 50L73 77L66.5 70.5L87 50L66.5 29.5L73 23Z" fill="#14B1ED"/>
<path d="M13 50L50 87L87 50L50 13L13 50Z" fill="#F2F2F2"/>
<path d="M42.7273 62L30 70V38L42.7273 30M42.7273 62L57.2727 70M42.7273 62V30M57.2727 70L70 62V30L57.2727 38M57.2727 70V38M57.2727 38L42.7273 30" stroke="#828282" stroke-width="2" stroke-linecap="round" stroke-linejoin="round"/>
<path d="M36.3262 51.6873C40.2308 47.0506 44.1671 45.7811 46.8944 47.5623C49.6216 49.3435 47.2258 51.6768 53.7883 56.4581C60.3508 61.2394 64.025 55.5311 64.025 55.5311" stroke="#0062B2" stroke-width="2" stroke-dasharray="5 2"/>
<path fill-rule="evenodd" clip-rule="evenodd" d="M62.2741 52.1838C61.3864 50.915 60.5684 49.7457 60.5684 48.4528C60.5684 42.5158 68.0128 42.5157 68.0128 48.4528C68.0128 49.7325 67.1962 50.8912 66.3125 52.145C65.5025 53.2945 64.636 54.524 64.2906 56C63.9228 54.5406 63.0704 53.3222 62.2741 52.1838ZM62.5499 48.4528C62.5499 45.7109 66.0655 45.7109 66.0655 48.4528C66.0655 51.1946 62.5499 51.054 62.5499 48.4528Z" fill="#538F23"/>
<path fill-rule="evenodd" clip-rule="evenodd" d="M34.6598 47.8713C33.7722 46.6025 32.9541 45.4332 32.9541 44.1403C32.9541 38.2033 40.3985 38.2032 40.3985 44.1403C40.3985 45.42 39.582 46.5787 38.6983 47.8325C37.8882 48.982 37.0217 50.2115 36.6763 51.6875C36.3085 50.2281 35.4562 49.0097 34.6598 47.8713ZM34.9356 44.1403C34.9356 41.3984 38.4513 41.3984 38.4513 44.1403C38.4513 46.8821 34.9356 46.7415 34.9356 44.1403Z" fill="#EB5757"/>
</svg>
